<?xml version="1.0" encoding="utf-8" standalone="no"?>
<!DOCTYPE svg PUBLIC "-//W3C//DTD SVG 1.1//EN"
  "http://www.w3.org/Graphics/SVG/1.1/DTD/svg11.dtd">
<svg xmlns:xlink="http://www.w3.org/1999/xlink" width="1080pt" height="468pt" viewBox="0 0 1080 468" xmlns="http://www.w3.org/2000/svg" version="1.1">
 <metadata>
  <rdf:RDF xmlns:dc="http://purl.org/dc/elements/1.1/" xmlns:cc="http://creativecommons.org/ns#" xmlns:rdf="http://www.w3.org/1999/02/22-rdf-syntax-ns#">
   <cc:Work>
    <dc:type rdf:resource="http://purl.org/dc/dcmitype/StillImage"/>
    <dc:date>2026-01-03T17:07:03.387585</dc:date>
    <dc:format>image/svg+xml</dc:format>
    <dc:creator>
     <cc:Agent>
      <dc:title>Matplotlib v3.10.8, https://matplotlib.org/</dc:title>
     </cc:Agent>
    </dc:creator>
   </cc:Work>
  </rdf:RDF>
 </metadata>
 <defs>
  <style type="text/css">*{stroke-linejoin: round; stroke-linecap: butt}</style>
 </defs>
 <g id="figure_1">
  <g id="patch_1">
   <path d="M 0 468 
L 1080 468 
L 1080 0 
L 0 0 
z
" style="fill: #ffffff"/>
  </g>
  <g id="axes_1">
   <g id="patch_2">
    <path d="M 62.7 404.032062 
L 524.955 404.032062 
L 524.955 55.8 
L 62.7 55.8 
z
" style="fill: #ffffff"/>
   </g>
   <g id="matplotlib.axis_1">
    <g id="xtick_1">
     <g id="line2d_1">
      <path d="M 117.259509 404.032062 
L 117.259509 55.8 
" clip-path="url(#p1dbb295487)" style="fill: none; stroke: #cccccc; stroke-width: 0.8; stroke-linecap: round"/>
     </g>
     <g id="line2d_2"/>
     <g id="text_1">
      <text style="font-size: 11px; font-family: 'Arial', 'DejaVu Sans', 'Liberation Sans', sans-serif; fill: #262626" transform="translate(79.316352 435.995317) rotate(-15)">MedBullets(op4)</text>
     </g>
    </g>
    <g id="xtick_2">
     <g id="line2d_3">
      <path d="M 205.543505 404.032062 
L 205.543505 55.8 
" clip-path="url(#p1dbb295487)" style="fill: none; stroke: #cccccc; stroke-width: 0.8; stroke-linecap: round"/>
     </g>
     <g id="line2d_4"/>
     <g id="text_2">
      <text style="font-size: 11px; font-family: 'Arial', 'DejaVu Sans', 'Liberation Sans', sans-serif; fill: #262626" transform="translate(188.269814 424.788732) rotate(-15)">MedQA</text>
     </g>
    </g>
    <g id="xtick_3">
     <g id="line2d_5">
      <path d="M 293.8275 404.032062 
L 293.8275 55.8 
" clip-path="url(#p1dbb295487)" style="fill: none; stroke: #cccccc; stroke-width: 0.8; stroke-linecap: round"/>
     </g>
     <g id="line2d_6"/>
     <g id="text_3">
      <text style="font-size: 11px; font-family: 'Arial', 'DejaVu Sans', 'Liberation Sans', sans-serif; fill: #262626" transform="translate(263.874953 431.72922) rotate(-15)">MedXpertQA</text>
     </g>
    </g>
    <g id="xtick_4">
     <g id="line2d_7">
      <path d="M 382.111495 404.032062 
L 382.111495 55.8 
" clip-path="url(#p1dbb295487)" style="fill: none; stroke: #cccccc; stroke-width: 0.8; stroke-linecap: round"/>
     </g>
     <g id="line2d_8"/>
     <g id="text_4">
      <text style="font-size: 11px; font-family: 'Arial', 'DejaVu Sans', 'Liberation Sans', sans-serif; fill: #262626" transform="translate(344.168339 435.995317) rotate(-15)">MedBullets(op5)</text>
     </g>
    </g>
    <g id="xtick_5">
     <g id="line2d_9">
      <path d="M 470.395491 404.032062 
L 470.395491 55.8 
" clip-path="url(#p1dbb295487)" style="fill: none; stroke: #cccccc; stroke-width: 0.8; stroke-linecap: round"/>
     </g>
     <g id="line2d_10"/>
     <g id="text_5">
      <text style="font-size: 11px; font-family: 'Arial', 'DejaVu Sans', 'Liberation Sans', sans-serif; fill: #262626" transform="translate(439.247471 432.353814) rotate(-15)">HLE(Biomed)</text>
     </g>
    </g>
   </g>
   <g id="matplotlib.axis_2">
    <g id="ytick_1">
     <g id="line2d_11">
      <path d="M 62.7 404.032062 
L 524.955 404.032062 
" clip-path="url(#p1dbb295487)" style="fill: none; stroke-dasharray: 2.96,1.28; stroke-dashoffset: 0; stroke: #cccccc; stroke-opacity: 0.6; stroke-width: 0.8"/>
     </g>
     <g id="line2d_12"/>
     <g id="text_6">
      <text style="font-size: 11px; font-family: 'Arial', 'DejaVu Sans', 'Liberation Sans', sans-serif; text-anchor: end; fill: #262626" x="59.2" y="407.968859" transform="rotate(-0 59.2 407.968859)">0</text>
     </g>
    </g>
    <g id="ytick_2">
     <g id="line2d_13">
      <path d="M 62.7 354.284625 
L 524.955 354.284625 
" clip-path="url(#p1dbb295487)" style="fill: none; stroke-dasharray: 2.96,1.28; stroke-dashoffset: 0; stroke: #cccccc; stroke-opacity: 0.6; stroke-width: 0.8"/>
     </g>
     <g id="line2d_14"/>
     <g id="text_7">
      <text style="font-size: 11px; font-family: 'Arial', 'DejaVu Sans', 'Liberation Sans', sans-serif; text-anchor: end; fill: #262626" x="59.2" y="358.221422" transform="rotate(-0 59.2 358.221422)">2</text>
     </g>
    </g>
    <g id="ytick_3">
     <g id="line2d_15">
      <path d="M 62.7 304.537187 
L 524.955 304.537187 
" clip-path="url(#p1dbb295487)" style="fill: none; stroke-dasharray: 2.96,1.28; stroke-dashoffset: 0; stroke: #cccccc; stroke-opacity: 0.6; stroke-width: 0.8"/>
     </g>
     <g id="line2d_16"/>
     <g id="text_8">
      <text style="font-size: 11px; font-family: 'Arial', 'DejaVu Sans', 'Liberation Sans', sans-serif; text-anchor: end; fill: #262626" x="59.2" y="308.473984" transform="rotate(-0 59.2 308.473984)">4</text>
     </g>
    </g>
    <g id="ytick_4">
     <g id="line2d_17">
      <path d="M 62.7 254.78975 
L 524.955 254.78975 
" clip-path="url(#p1dbb295487)" style="fill: none; stroke-dasharray: 2.96,1.28; stroke-dashoffset: 0; stroke: #cccccc; stroke-opacity: 0.6; stroke-width: 0.8"/>
     </g>
     <g id="line2d_18"/>
     <g id="text_9">
      <text style="font-size: 11px; font-family: 'Arial', 'DejaVu Sans', 'Liberation Sans', sans-serif; text-anchor: end; fill: #262626" x="59.2" y="258.726547" transform="rotate(-0 59.2 258.726547)">6</text>
     </g>
    </g>
    <g id="ytick_5">
     <g id="line2d_19">
      <path d="M 62.7 205.042312 
L 524.955 205.042312 
" clip-path="url(#p1dbb295487)" style="fill: none; stroke-dasharray: 2.96,1.28; stroke-dashoffset: 0; stroke: #cccccc; stroke-opacity: 0.6; stroke-width: 0.8"/>
     </g>
     <g id="line2d_20"/>
     <g id="text_10">
      <text style="font-size: 11px; font-family: 'Arial', 'DejaVu Sans', 'Liberation Sans', sans-serif; text-anchor: end; fill: #262626" x="59.2" y="208.979109" transform="rotate(-0 59.2 208.979109)">8</text>
     </g>
    </g>
    <g id="ytick_6">
     <g id="line2d_21">
      <path d="M 62.7 155.294875 
L 524.955 155.294875 
" clip-path="url(#p1dbb295487)" style="fill: none; stroke-dasharray: 2.96,1.28; stroke-dashoffset: 0; stroke: #cccccc; stroke-opacity: 0.6; stroke-width: 0.8"/>
     </g>
     <g id="line2d_22"/>
     <g id="text_11">
      <text style="font-size: 11px; font-family: 'Arial', 'DejaVu Sans', 'Liberation Sans', sans-serif; text-anchor: end; fill: #262626" x="59.2" y="159.231672" transform="rotate(-0 59.2 159.231672)">10</text>
     </g>
    </g>
    <g id="ytick_7">
     <g id="line2d_23">
      <path d="M 62.7 105.547437 
L 524.955 105.547437 
" clip-path="url(#p1dbb295487)" style="fill: none; stroke-dasharray: 2.96,1.28; stroke-dashoffset: 0; stroke: #cccccc; stroke-opacity: 0.6; stroke-width: 0.8"/>
     </g>
     <g id="line2d_24"/>
     <g id="text_12">
      <text style="font-size: 11px; font-family: 'Arial', 'DejaVu Sans', 'Liberation Sans', sans-serif; text-anchor: end; fill: #262626" x="59.2" y="109.484234" transform="rotate(-0 59.2 109.484234)">12</text>
     </g>
    </g>
    <g id="ytick_8">
     <g id="line2d_25">
      <path d="M 62.7 55.8 
L 524.955 55.8 
" clip-path="url(#p1dbb295487)" style="fill: none; stroke-dasharray: 2.96,1.28; stroke-dashoffset: 0; stroke: #cccccc; stroke-opacity: 0.6; stroke-width: 0.8"/>
     </g>
     <g id="line2d_26"/>
     <g id="text_13">
      <text style="font-size: 11px; font-family: 'Arial', 'DejaVu Sans', 'Liberation Sans', sans-serif; text-anchor: end; fill: #262626" x="59.2" y="59.736797" transform="rotate(-0 59.2 59.736797)">14</text>
     </g>
    </g>
    <g id="text_14">
     <text style="font-size: 13px; font-family: 'Arial', 'DejaVu Sans', 'Liberation Sans', sans-serif; text-anchor: middle; fill: #262626" x="40.229844" y="229.916031" transform="rotate(-90 40.229844 229.916031)">Avg. Latency (s)</text>
    </g>
   </g>
   <g id="patch_3">
    <path d="M 83.711591 404.032062 
L 117.259509 404.032062 
L 117.259509 111.765867 
L 83.711591 111.765867 
z
" clip-path="url(#p1dbb295487)" style="fill: #7f8c8d; opacity: 0.7; stroke: #ffffff; stroke-width: 1.5; stroke-linejoin: miter"/>
   </g>
   <g id="patch_4">
    <path d="M 171.995586 404.032062 
L 205.543505 404.032062 
L 205.543505 161.513305 
L 171.995586 161.513305 
z
" clip-path="url(#p1dbb295487)" style="fill: #7f8c8d; opacity: 0.7; stroke: #ffffff; stroke-width: 1.5; stroke-linejoin: miter"/>
   </g>
   <g id="patch_5">
    <path d="M 260.279582 404.032062 
L 293.8275 404.032062 
L 293.8275 160.269619 
L 260.279582 160.269619 
z
" clip-path="url(#p1dbb295487)" style="fill: #7f8c8d; opacity: 0.7; stroke: #ffffff; stroke-width: 1.5; stroke-linejoin: miter"/>
   </g>
   <g id="patch_6">
    <path d="M 348.563577 404.032062 
L 382.111495 404.032062 
L 382.111495 168.726683 
L 348.563577 168.726683 
z
" clip-path="url(#p1dbb295487)" style="fill: #7f8c8d; opacity: 0.7; stroke: #ffffff; stroke-width: 1.5; stroke-linejoin: miter"/>
   </g>
   <g id="patch_7">
    <path d="M 436.847573 404.032062 
L 470.395491 404.032062 
L 470.395491 156.041086 
L 436.847573 156.041086 
z
" clip-path="url(#p1dbb295487)" style="fill: #7f8c8d; opacity: 0.7; stroke: #ffffff; stroke-width: 1.5; stroke-linejoin: miter"/>
   </g>
   <g id="patch_8">
    <path d="M 117.259509 404.032062 
L 150.807427 404.032062 
L 150.807427 184.8946 
L 117.259509 184.8946 
z
" clip-path="url(#p1dbb295487)" style="fill: #00897b; opacity: 0.9; stroke: #ffffff; stroke-width: 1.5; stroke-linejoin: miter"/>
   </g>
   <g id="patch_9">
    <path d="M 205.543505 404.032062 
L 239.091423 404.032062 
L 239.091423 215.738011 
L 205.543505 215.738011 
z
" clip-path="url(#p1dbb295487)" style="fill: #00897b; opacity: 0.9; stroke: #ffffff; stroke-width: 1.5; stroke-linejoin: miter"/>
   </g>
   <g id="patch_10">
    <path d="M 293.8275 404.032062 
L 327.375418 404.032062 
L 327.375418 216.235486 
L 293.8275 216.235486 
z
" clip-path="url(#p1dbb295487)" style="fill: #00897b; opacity: 0.9; stroke: #ffffff; stroke-width: 1.5; stroke-linejoin: miter"/>
   </g>
   <g id="patch_11">
    <path d="M 382.111495 404.032062 
L 415.659414 404.032062 
L 415.659414 216.484223 
L 382.111495 216.484223 
z
" clip-path="url(#p1dbb295487)" style="fill: #00897b; opacity: 0.9; stroke: #ffffff; stroke-width: 1.5; stroke-linejoin: miter"/>
   </g>
   <g id="patch_12">
    <path d="M 470.395491 404.032062 
L 503.943409 404.032062 
L 503.943409 213.499377 
L 470.395491 213.499377 
z
" clip-path="url(#p1dbb295487)" style="fill: #00897b; opacity: 0.9; stroke: #ffffff; stroke-width: 1.5; stroke-linejoin: miter"/>
   </g>
   <g id="patch_13">
    <path d="M 62.7 404.032062 
L 62.7 55.8 
" style="fill: none; stroke: #cccccc; stroke-linejoin: miter; stroke-linecap: square"/>
   </g>
   <g id="patch_14">
    <path d="M 524.955 404.032062 
L 524.955 55.8 
" style="fill: none; stroke: #cccccc; stroke-linejoin: miter; stroke-linecap: square"/>
   </g>
   <g id="patch_15">
    <path d="M 62.7 404.032062 
L 524.955 404.032062 
" style="fill: none; stroke: #cccccc; stroke-linejoin: miter; stroke-linecap: square"/>
   </g>
   <g id="patch_16">
    <path d="M 62.7 55.8 
L 524.955 55.8 
" style="fill: none; stroke: #cccccc; stroke-linejoin: miter; stroke-linecap: square"/>
   </g>
   <g id="text_15">
    <g id="patch_17">
     <path d="M 82.24779 168.995625 
L 152.271228 168.995625 
Q 156.271228 168.995625 156.271228 164.995625 
L 156.271228 155.7425 
Q 156.271228 151.7425 152.271228 151.7425 
L 82.24779 151.7425 
Q 78.24779 151.7425 78.24779 155.7425 
L 78.24779 164.995625 
Q 78.24779 168.995625 82.24779 168.995625 
z
" style="fill: #ffffff; opacity: 0.9; stroke: #d35400; stroke-linejoin: miter"/>
    </g>
    <text style="font-weight: 700; font-size: 10px; font-family: 'Arial', 'DejaVu Sans', 'Liberation Sans', sans-serif; text-anchor: middle; fill: #d35400" x="117.259509" y="163.022188" transform="rotate(-0 117.259509 163.022188)">1.33x Speedup</text>
   </g>
   <g id="text_16">
    <g id="patch_18">
     <path d="M 170.531786 199.839036 
L 240.555223 199.839036 
Q 244.555223 199.839036 244.555223 195.839036 
L 244.555223 186.585911 
Q 244.555223 182.585911 240.555223 182.585911 
L 170.531786 182.585911 
Q 166.531786 182.585911 166.531786 186.585911 
L 166.531786 195.839036 
Q 166.531786 199.839036 170.531786 199.839036 
z
" style="fill: #ffffff; opacity: 0.9; stroke: #d35400; stroke-linejoin: miter"/>
    </g>
    <text style="font-weight: 700; font-size: 10px; font-family: 'Arial', 'DejaVu Sans', 'Liberation Sans', sans-serif; text-anchor: middle; fill: #d35400" x="205.543505" y="193.865599" transform="rotate(-0 205.543505 193.865599)">1.29x Speedup</text>
   </g>
   <g id="text_17">
    <g id="patch_19">
     <path d="M 258.815781 200.336511 
L 328.839219 200.336511 
Q 332.839219 200.336511 332.839219 196.336511 
L 332.839219 187.083386 
Q 332.839219 183.083386 328.839219 183.083386 
L 258.815781 183.083386 
Q 254.815781 183.083386 254.815781 187.083386 
L 254.815781 196.336511 
Q 254.815781 200.336511 258.815781 200.336511 
z
" style="fill: #ffffff; opacity: 0.9; stroke: #d35400; stroke-linejoin: miter"/>
    </g>
    <text style="font-weight: 700; font-size: 10px; font-family: 'Arial', 'DejaVu Sans', 'Liberation Sans', sans-serif; text-anchor: middle; fill: #d35400" x="293.8275" y="194.363073" transform="rotate(-0 293.8275 194.363073)">1.30x Speedup</text>
   </g>
   <g id="text_18">
    <g id="patch_20">
     <path d="M 347.099777 200.585248 
L 417.123214 200.585248 
Q 421.123214 200.585248 421.123214 196.585248 
L 421.123214 187.332123 
Q 421.123214 183.332123 417.123214 183.332123 
L 347.099777 183.332123 
Q 343.099777 183.332123 343.099777 187.332123 
L 343.099777 196.585248 
Q 343.099777 200.585248 347.099777 200.585248 
z
" style="fill: #ffffff; opacity: 0.9; stroke: #d35400; stroke-linejoin: miter"/>
    </g>
    <text style="font-weight: 700; font-size: 10px; font-family: 'Arial', 'DejaVu Sans', 'Liberation Sans', sans-serif; text-anchor: middle; fill: #d35400" x="382.111495" y="194.61181" transform="rotate(-0 382.111495 194.61181)">1.25x Speedup</text>
   </g>
   <g id="text_19">
    <g id="patch_21">
     <path d="M 435.383772 197.600402 
L 505.40721 197.600402 
Q 509.40721 197.600402 509.40721 193.600402 
L 509.40721 184.347277 
Q 509.40721 180.347277 505.40721 180.347277 
L 435.383772 180.347277 
Q 431.383772 180.347277 431.383772 184.347277 
L 431.383772 193.600402 
Q 431.383772 197.600402 435.383772 197.600402 
z
" style="fill: #ffffff; opacity: 0.9; stroke: #d35400; stroke-linejoin: miter"/>
    </g>
    <text style="font-weight: 700; font-size: 10px; font-family: 'Arial', 'DejaVu Sans', 'Liberation Sans', sans-serif; text-anchor: middle; fill: #d35400" x="470.395491" y="191.626964" transform="rotate(-0 470.395491 191.626964)">1.30x Speedup</text>
   </g>
   <g id="text_20">
    <text style="font-weight: 700; font-size: 15px; font-family: 'Arial', 'DejaVu Sans', 'Liberation Sans', sans-serif; text-anchor: middle; fill: #262626" x="293.8275" y="40.8" transform="rotate(-0 293.8275 40.8)">(a) End-to-End Latency</text>
   </g>
   <g id="legend_1">
    <g id="patch_22">
     <path d="M 70.4 96.2525 
L 231.539688 96.2525 
Q 233.739688 96.2525 233.739688 94.0525 
L 233.739688 63.5 
Q 233.739688 61.3 231.539688 61.3 
L 70.4 61.3 
Q 68.2 61.3 68.2 63.5 
L 68.2 94.0525 
Q 68.2 96.2525 70.4 96.2525 
z
" style="fill: #ffffff; opacity: 0.9; stroke: #cccccc; stroke-linejoin: miter"/>
    </g>
    <g id="patch_23">
     <path d="M 72.6 73.707656 
L 94.6 73.707656 
L 94.6 66.007656 
L 72.6 66.007656 
z
" style="fill: #7f8c8d; opacity: 0.7; stroke: #ffffff; stroke-width: 1.5; stroke-linejoin: miter"/>
    </g>
    <g id="text_21">
     <text style="font-size: 11px; font-family: 'Arial', 'DejaVu Sans', 'Liberation Sans', sans-serif; text-anchor: start; fill: #262626" x="103.4" y="73.707656" transform="rotate(-0 103.4 73.707656)">Autoregressive (Baseline)</text>
    </g>
    <g id="patch_24">
     <path d="M 72.6 89.537344 
L 94.6 89.537344 
L 94.6 81.837344 
L 72.6 81.837344 
z
" style="fill: #00897b; opacity: 0.9; stroke: #ffffff; stroke-width: 1.5; stroke-linejoin: miter"/>
    </g>
    <g id="text_22">
     <text style="font-size: 11px; font-family: 'Arial', 'DejaVu Sans', 'Liberation Sans', sans-serif; text-anchor: start; fill: #262626" x="103.4" y="89.537344" transform="rotate(-0 103.4 89.537344)">Multiverse-Med (Ours)</text>
    </g>
   </g>
  </g>
  <g id="axes_2">
   <g id="patch_25">
    <path d="M 587.745 404.032062 
L 1050 404.032062 
L 1050 55.8 
L 587.745 55.8 
z
" style="fill: #ffffff"/>
   </g>
   <g id="matplotlib.axis_3">
    <g id="xtick_6">
     <g id="line2d_27">
      <path d="M 608.756591 404.032062 
L 608.756591 55.8 
" clip-path="url(#pd778a1f76a)" style="fill: none; stroke-dasharray: 2.96,1.28; stroke-dashoffset: 0; stroke: #cccccc; stroke-opacity: 0.6; stroke-width: 0.8"/>
     </g>
     <g id="line2d_28"/>
     <g id="text_23">
      <text style="font-size: 11px; font-family: 'Arial', 'DejaVu Sans', 'Liberation Sans', sans-serif; text-anchor: middle; fill: #262626" x="608.756591" y="415.405656" transform="rotate(-0 608.756591 415.405656)">128</text>
     </g>
    </g>
    <g id="xtick_7">
     <g id="line2d_29">
      <path d="M 713.814545 404.032062 
L 713.814545 55.8 
" clip-path="url(#pd778a1f76a)" style="fill: none; stroke-dasharray: 2.96,1.28; stroke-dashoffset: 0; stroke: #cccccc; stroke-opacity: 0.6; stroke-width: 0.8"/>
     </g>
     <g id="line2d_30"/>
     <g id="text_24">
      <text style="font-size: 11px; font-family: 'Arial', 'DejaVu Sans', 'Liberation Sans', sans-serif; text-anchor: middle; fill: #262626" x="713.814545" y="415.405656" transform="rotate(-0 713.814545 415.405656)">256</text>
     </g>
    </g>
    <g id="xtick_8">
     <g id="line2d_31">
      <path d="M 818.8725 404.032062 
L 818.8725 55.8 
" clip-path="url(#pd778a1f76a)" style="fill: none; stroke-dasharray: 2.96,1.28; stroke-dashoffset: 0; stroke: #cccccc; stroke-opacity: 0.6; stroke-width: 0.8"/>
     </g>
     <g id="line2d_32"/>
     <g id="text_25">
      <text style="font-size: 11px; font-family: 'Arial', 'DejaVu Sans', 'Liberation Sans', sans-serif; text-anchor: middle; fill: #262626" x="818.8725" y="415.405656" transform="rotate(-0 818.8725 415.405656)">512</text>
     </g>
    </g>
    <g id="xtick_9">
     <g id="line2d_33">
      <path d="M 923.930455 404.032062 
L 923.930455 55.8 
" clip-path="url(#pd778a1f76a)" style="fill: none; stroke-dasharray: 2.96,1.28; stroke-dashoffset: 0; stroke: #cccccc; stroke-opacity: 0.6; stroke-width: 0.8"/>
     </g>
     <g id="line2d_34"/>
     <g id="text_26">
      <text style="font-size: 11px; font-family: 'Arial', 'DejaVu Sans', 'Liberation Sans', sans-serif; text-anchor: middle; fill: #262626" x="923.930455" y="415.405656" transform="rotate(-0 923.930455 415.405656)">1024</text>
     </g>
    </g>
    <g id="xtick_10">
     <g id="line2d_35">
      <path d="M 1028.988409 404.032062 
L 1028.988409 55.8 
" clip-path="url(#pd778a1f76a)" style="fill: none; stroke-dasharray: 2.96,1.28; stroke-dashoffset: 0; stroke: #cccccc; stroke-opacity: 0.6; stroke-width: 0.8"/>
     </g>
     <g id="line2d_36"/>
     <g id="text_27">
      <text style="font-size: 11px; font-family: 'Arial', 'DejaVu Sans', 'Liberation Sans', sans-serif; text-anchor: middle; fill: #262626" x="1028.988409" y="415.405656" transform="rotate(-0 1028.988409 415.405656)">2048</text>
     </g>
    </g>
    <g id="text_28">
     <text style="font-size: 13px; font-family: 'Arial', 'DejaVu Sans', 'Liberation Sans', sans-serif; text-anchor: middle; fill: #262626" x="818.8725" y="431.0555" transform="rotate(-0 818.8725 431.0555)">Token Limit (Sequence Length)</text>
    </g>
   </g>
   <g id="matplotlib.axis_4">
    <g id="ytick_9">
     <g id="line2d_37">
      <path d="M 587.745 404.032062 
L 1050 404.032062 
" clip-path="url(#pd778a1f76a)" style="fill: none; stroke-dasharray: 2.96,1.28; stroke-dashoffset: 0; stroke: #cccccc; stroke-opacity: 0.6; stroke-width: 0.8"/>
     </g>
     <g id="line2d_38"/>
     <g id="text_29">
      <text style="font-size: 11px; font-family: 'Arial', 'DejaVu Sans', 'Liberation Sans', sans-serif; text-anchor: end; fill: #262626" x="584.245" y="407.968859" transform="rotate(-0 584.245 407.968859)">8</text>
     </g>
    </g>
    <g id="ytick_10">
     <g id="line2d_39">
      <path d="M 587.745 345.993385 
L 1050 345.993385 
" clip-path="url(#pd778a1f76a)" style="fill: none; stroke-dasharray: 2.96,1.28; stroke-dashoffset: 0; stroke: #cccccc; stroke-opacity: 0.6; stroke-width: 0.8"/>
     </g>
     <g id="line2d_40"/>
     <g id="text_30">
      <text style="font-size: 11px; font-family: 'Arial', 'DejaVu Sans', 'Liberation Sans', sans-serif; text-anchor: end; fill: #262626" x="584.245" y="349.930182" transform="rotate(-0 584.245 349.930182)">10</text>
     </g>
    </g>
    <g id="ytick_11">
     <g id="line2d_41">
      <path d="M 587.745 287.954708 
L 1050 287.954708 
" clip-path="url(#pd778a1f76a)" style="fill: none; stroke-dasharray: 2.96,1.28; stroke-dashoffset: 0; stroke: #cccccc; stroke-opacity: 0.6; stroke-width: 0.8"/>
     </g>
     <g id="line2d_42"/>
     <g id="text_31">
      <text style="font-size: 11px; font-family: 'Arial', 'DejaVu Sans', 'Liberation Sans', sans-serif; text-anchor: end; fill: #262626" x="584.245" y="291.891505" transform="rotate(-0 584.245 291.891505)">12</text>
     </g>
    </g>
    <g id="ytick_12">
     <g id="line2d_43">
      <path d="M 587.745 229.916031 
L 1050 229.916031 
" clip-path="url(#pd778a1f76a)" style="fill: none; stroke-dasharray: 2.96,1.28; stroke-dashoffset: 0; stroke: #cccccc; stroke-opacity: 0.6; stroke-width: 0.8"/>
     </g>
     <g id="line2d_44"/>
     <g id="text_32">
      <text style="font-size: 11px; font-family: 'Arial', 'DejaVu Sans', 'Liberation Sans', sans-serif; text-anchor: end; fill: #262626" x="584.245" y="233.852828" transform="rotate(-0 584.245 233.852828)">14</text>
     </g>
    </g>
    <g id="ytick_13">
     <g id="line2d_45">
      <path d="M 587.745 171.877354 
L 1050 171.877354 
" clip-path="url(#pd778a1f76a)" style="fill: none; stroke-dasharray: 2.96,1.28; stroke-dashoffset: 0; stroke: #cccccc; stroke-opacity: 0.6; stroke-width: 0.8"/>
     </g>
     <g id="line2d_46"/>
     <g id="text_33">
      <text style="font-size: 11px; font-family: 'Arial', 'DejaVu Sans', 'Liberation Sans', sans-serif; text-anchor: end; fill: #262626" x="584.245" y="175.814151" transform="rotate(-0 584.245 175.814151)">16</text>
     </g>
    </g>
    <g id="ytick_14">
     <g id="line2d_47">
      <path d="M 587.745 113.838677 
L 1050 113.838677 
" clip-path="url(#pd778a1f76a)" style="fill: none; stroke-dasharray: 2.96,1.28; stroke-dashoffset: 0; stroke: #cccccc; stroke-opacity: 0.6; stroke-width: 0.8"/>
     </g>
     <g id="line2d_48"/>
     <g id="text_34">
      <text style="font-size: 11px; font-family: 'Arial', 'DejaVu Sans', 'Liberation Sans', sans-serif; text-anchor: end; fill: #262626" x="584.245" y="117.775474" transform="rotate(-0 584.245 117.775474)">18</text>
     </g>
    </g>
    <g id="ytick_15">
     <g id="line2d_49">
      <path d="M 587.745 55.8 
L 1050 55.8 
" clip-path="url(#pd778a1f76a)" style="fill: none; stroke-dasharray: 2.96,1.28; stroke-dashoffset: 0; stroke: #cccccc; stroke-opacity: 0.6; stroke-width: 0.8"/>
     </g>
     <g id="line2d_50"/>
     <g id="text_35">
      <text style="font-size: 11px; font-family: 'Arial', 'DejaVu Sans', 'Liberation Sans', sans-serif; text-anchor: end; fill: #262626" x="584.245" y="59.736797" transform="rotate(-0 584.245 59.736797)">20</text>
     </g>
    </g>
    <g id="text_36">
     <text style="font-size: 13px; font-family: 'Arial', 'DejaVu Sans', 'Liberation Sans', sans-serif; text-anchor: middle; fill: #262626" x="565.274844" y="229.916031" transform="rotate(-90 565.274844 229.916031)">Throughput (Tokens/Sec)</text>
    </g>
   </g>
   <g id="FillBetweenPolyCollection_1">
    <defs>
     <path id="m4a5f0efada" d="M 608.756591 -151.896534 
L 608.756591 -126.069322 
L 713.814545 -128.390869 
L 818.8725 -121.136035 
L 923.930455 -121.426228 
L 1028.988409 -124.618355 
L 1028.988409 -327.463532 
L 1028.988409 -327.463532 
L 923.930455 -230.538941 
L 818.8725 -198.037282 
L 713.814545 -179.464905 
L 608.756591 -151.896534 
z
" style="stroke: #00897b; stroke-opacity: 0.2"/>
    </defs>
    <g clip-path="url(#pd778a1f76a)">
     <use xlink:href="#m4a5f0efada" x="0" y="468" style="fill: #00897b; fill-opacity: 0.2; stroke: #00897b; stroke-opacity: 0.2"/>
    </g>
   </g>
   <g id="line2d_51">
    <path d="M 608.756591 341.930678 
L 713.814545 339.609131 
L 818.8725 346.863965 
L 923.930455 346.573772 
L 1028.988409 343.381645 
" clip-path="url(#pd778a1f76a)" style="fill: none; stroke-dasharray: 9.25,4; stroke-dashoffset: 0; stroke: #7f8c8d; stroke-width: 2.5"/>
    <defs>
     <path id="me4464aaf04" d="M 0 4.5 
C 1.193414 4.5 2.338109 4.025852 3.181981 3.181981 
C 4.025852 2.338109 4.5 1.193414 4.5 0 
C 4.5 -1.193414 4.025852 -2.338109 3.181981 -3.181981 
C 2.338109 -4.025852 1.193414 -4.5 0 -4.5 
C -1.193414 -4.5 -2.338109 -4.025852 -3.181981 -3.181981 
C -4.025852 -2.338109 -4.5 -1.193414 -4.5 0 
C -4.5 1.193414 -4.025852 2.338109 -3.181981 3.181981 
C -2.338109 4.025852 -1.193414 4.5 0 4.5 
z
" style="stroke: #7f8c8d; stroke-width: 2"/>
    </defs>
    <g clip-path="url(#pd778a1f76a)">
     <use xlink:href="#me4464aaf04" x="608.756591" y="341.930678" style="fill: #ffffff; stroke: #7f8c8d; stroke-width: 2"/>
     <use xlink:href="#me4464aaf04" x="713.814545" y="339.609131" style="fill: #ffffff; stroke: #7f8c8d; stroke-width: 2"/>
     <use xlink:href="#me4464aaf04" x="818.8725" y="346.863965" style="fill: #ffffff; stroke: #7f8c8d; stroke-width: 2"/>
     <use xlink:href="#me4464aaf04" x="923.930455" y="346.573772" style="fill: #ffffff; stroke: #7f8c8d; stroke-width: 2"/>
     <use xlink:href="#me4464aaf04" x="1028.988409" y="343.381645" style="fill: #ffffff; stroke: #7f8c8d; stroke-width: 2"/>
    </g>
   </g>
   <g id="line2d_52">
    <path d="M 608.756591 316.103466 
L 713.814545 288.535095 
L 818.8725 269.962718 
L 923.930455 237.461059 
L 1028.988409 140.536468 
" clip-path="url(#pd778a1f76a)" style="fill: none; stroke: #00897b; stroke-width: 3; stroke-linecap: round"/>
    <defs>
     <path id="mddc382ae8d" d="M -0 6.363961 
L 6.363961 0 
L 0 -6.363961 
L -6.363961 -0 
z
" style="stroke: #ffffff; stroke-width: 1.5; stroke-linejoin: miter"/>
    </defs>
    <g clip-path="url(#pd778a1f76a)">
     <use xlink:href="#mddc382ae8d" x="608.756591" y="316.103466" style="fill: #00897b; stroke: #ffffff; stroke-width: 1.5; stroke-linejoin: miter"/>
     <use xlink:href="#mddc382ae8d" x="713.814545" y="288.535095" style="fill: #00897b; stroke: #ffffff; stroke-width: 1.5; stroke-linejoin: miter"/>
     <use xlink:href="#mddc382ae8d" x="818.8725" y="269.962718" style="fill: #00897b; stroke: #ffffff; stroke-width: 1.5; stroke-linejoin: miter"/>
     <use xlink:href="#mddc382ae8d" x="923.930455" y="237.461059" style="fill: #00897b; stroke: #ffffff; stroke-width: 1.5; stroke-linejoin: miter"/>
     <use xlink:href="#mddc382ae8d" x="1028.988409" y="140.536468" style="fill: #00897b; stroke: #ffffff; stroke-width: 1.5; stroke-linejoin: miter"/>
    </g>
   </g>
   <g id="patch_26">
    <path d="M 587.745 404.032062 
L 587.745 55.8 
" style="fill: none; stroke: #cccccc; stroke-linejoin: miter; stroke-linecap: square"/>
   </g>
   <g id="patch_27">
    <path d="M 1050 404.032062 
L 1050 55.8 
" style="fill: none; stroke: #cccccc; stroke-linejoin: miter; stroke-linecap: square"/>
   </g>
   <g id="patch_28">
    <path d="M 587.745 404.032062 
L 1050 404.032062 
" style="fill: none; stroke: #cccccc; stroke-linejoin: miter; stroke-linecap: square"/>
   </g>
   <g id="patch_29">
    <path d="M 587.745 55.8 
L 1050 55.8 
" style="fill: none; stroke: #cccccc; stroke-linejoin: miter; stroke-linecap: square"/>
   </g>
   <g id="text_37">
    <text style="font-weight: 700; font-size: 15px; font-family: 'Arial', 'DejaVu Sans', 'Liberation Sans', sans-serif; text-anchor: middle; fill: #262626" x="818.8725" y="40.8" transform="rotate(-0 818.8725 40.8)">(b) Throughput Scaling Divergence</text>
   </g>
   <g id="legend_2">
    <g id="patch_30">
     <path d="M 595.445 96.2525 
L 741.294688 96.2525 
Q 743.494688 96.2525 743.494688 94.0525 
L 743.494688 63.5 
Q 743.494688 61.3 741.294688 61.3 
L 595.445 61.3 
Q 593.245 61.3 593.245 63.5 
L 593.245 94.0525 
Q 593.245 96.2525 595.445 96.2525 
z
" style="fill: #ffffff; opacity: 0.9; stroke: #cccccc; stroke-linejoin: miter"/>
    </g>
    <g id="line2d_53">
     <path d="M 597.645 69.857656 
L 608.645 69.857656 
L 619.645 69.857656 
" style="fill: none; stroke-dasharray: 9.25,4; stroke-dashoffset: 0; stroke: #7f8c8d; stroke-width: 2.5"/>
     <g>
      <use xlink:href="#me4464aaf04" x="608.645" y="69.857656" style="fill: #ffffff; stroke: #7f8c8d; stroke-width: 2"/>
     </g>
    </g>
    <g id="text_38">
     <text style="font-size: 11px; font-family: 'Arial', 'DejaVu Sans', 'Liberation Sans', sans-serif; text-anchor: start; fill: #262626" x="628.445" y="73.707656" transform="rotate(-0 628.445 73.707656)">vLLM Serial (Baseline)</text>
    </g>
    <g id="line2d_54">
     <path d="M 597.645 85.687344 
L 608.645 85.687344 
L 619.645 85.687344 
" style="fill: none; stroke: #00897b; stroke-width: 3; stroke-linecap: round"/>
     <g>
      <use xlink:href="#mddc382ae8d" x="608.645" y="85.687344" style="fill: #00897b; stroke: #ffffff; stroke-width: 1.5; stroke-linejoin: miter"/>
     </g>
    </g>
    <g id="text_39">
     <text style="font-size: 11px; font-family: 'Arial', 'DejaVu Sans', 'Liberation Sans', sans-serif; text-anchor: start; fill: #262626" x="628.445" y="89.537344" transform="rotate(-0 628.445 89.537344)">Multiverse-Med (Ours)</text>
    </g>
   </g>
  </g>
 </g>
 <defs>
  <clipPath id="p1dbb295487">
   <rect x="62.7" y="55.8" width="462.255" height="348.232062"/>
  </clipPath>
  <clipPath id="pd778a1f76a">
   <rect x="587.745" y="55.8" width="462.255" height="348.232062"/>
  </clipPath>
 </defs>
</svg>
